<mxfile host="app.diagrams.net" modified="2022-04-23T07:16:55.927Z" agent="5.0 (Windows NT 10.0; Win64; x64) AppleWebKit/537.36 (KHTML, like Gecko) Chrome/100.0.4896.127 Safari/537.36" etag="IWptNC_-dQms82bRy00f" version="17.4.6" type="github">
  <diagram name="Page-1" id="edf60f1a-56cd-e834-aa8a-f176f3a09ee4">
    <mxGraphModel dx="2077" dy="52" grid="1" gridSize="10" guides="1" tooltips="1" connect="1" arrows="1" fold="1" page="1" pageScale="1" pageWidth="1100" pageHeight="850" background="none" math="0" shadow="0">
      <root>
        <mxCell id="0" />
        <mxCell id="1" parent="0" />
        <mxCell id="hV6w9RKZMiZoU73Pr-5g-18" style="edgeStyle=none;curved=1;rounded=0;orthogonalLoop=1;jettySize=auto;html=1;exitX=0.5;exitY=1;exitDx=0;exitDy=0;exitPerimeter=0;entryX=0.5;entryY=0;entryDx=0;entryDy=0;endArrow=open;startSize=14;endSize=14;sourcePerimeterSpacing=8;targetPerimeterSpacing=8;" edge="1" parent="1" source="hV6w9RKZMiZoU73Pr-5g-1" target="hV6w9RKZMiZoU73Pr-5g-11">
          <mxGeometry relative="1" as="geometry" />
        </mxCell>
        <mxCell id="hV6w9RKZMiZoU73Pr-5g-1" value="Start" style="strokeWidth=1;html=1;shape=mxgraph.flowchart.terminator;whiteSpace=wrap;rounded=0;shadow=1;labelBackgroundColor=none;fontFamily=Verdana;fontSize=8;align=center;" vertex="1" parent="1">
          <mxGeometry x="427.5" y="1040" width="60" height="30" as="geometry" />
        </mxCell>
        <mxCell id="hV6w9RKZMiZoU73Pr-5g-22" style="edgeStyle=none;curved=1;rounded=0;orthogonalLoop=1;jettySize=auto;html=1;exitX=0.5;exitY=1;exitDx=0;exitDy=0;entryX=0.5;entryY=0;entryDx=0;entryDy=0;endArrow=open;startSize=14;endSize=14;sourcePerimeterSpacing=8;targetPerimeterSpacing=8;" edge="1" parent="1" source="hV6w9RKZMiZoU73Pr-5g-4" target="hV6w9RKZMiZoU73Pr-5g-7">
          <mxGeometry relative="1" as="geometry" />
        </mxCell>
        <mxCell id="hV6w9RKZMiZoU73Pr-5g-4" value="HTML文章を読み込む" style="rounded=1;whiteSpace=wrap;html=1;hachureGap=4;" vertex="1" parent="1">
          <mxGeometry x="387.5" y="1380" width="140" height="30" as="geometry" />
        </mxCell>
        <mxCell id="hV6w9RKZMiZoU73Pr-5g-23" style="edgeStyle=none;curved=1;rounded=0;orthogonalLoop=1;jettySize=auto;html=1;exitX=0.5;exitY=1;exitDx=0;exitDy=0;entryX=0.5;entryY=0;entryDx=0;entryDy=0;endArrow=open;startSize=14;endSize=14;sourcePerimeterSpacing=8;targetPerimeterSpacing=8;" edge="1" parent="1" source="hV6w9RKZMiZoU73Pr-5g-7" target="hV6w9RKZMiZoU73Pr-5g-9">
          <mxGeometry relative="1" as="geometry" />
        </mxCell>
        <mxCell id="hV6w9RKZMiZoU73Pr-5g-7" value="ブラウザレンダリング" style="rounded=1;whiteSpace=wrap;html=1;hachureGap=4;" vertex="1" parent="1">
          <mxGeometry x="382.5" y="1460" width="150" height="30" as="geometry" />
        </mxCell>
        <mxCell id="hV6w9RKZMiZoU73Pr-5g-21" style="edgeStyle=none;curved=1;rounded=0;orthogonalLoop=1;jettySize=auto;html=1;exitX=0.5;exitY=1;exitDx=0;exitDy=0;entryX=0.5;entryY=0;entryDx=0;entryDy=0;endArrow=open;startSize=14;endSize=14;sourcePerimeterSpacing=8;targetPerimeterSpacing=8;" edge="1" parent="1" source="hV6w9RKZMiZoU73Pr-5g-8" target="hV6w9RKZMiZoU73Pr-5g-4">
          <mxGeometry relative="1" as="geometry" />
        </mxCell>
        <mxCell id="hV6w9RKZMiZoU73Pr-5g-8" value="HTML文章を作成" style="rounded=1;whiteSpace=wrap;html=1;hachureGap=4;" vertex="1" parent="1">
          <mxGeometry x="402.5" y="1300" width="110" height="30" as="geometry" />
        </mxCell>
        <mxCell id="hV6w9RKZMiZoU73Pr-5g-24" style="edgeStyle=none;curved=1;rounded=0;orthogonalLoop=1;jettySize=auto;html=1;exitX=0.5;exitY=1;exitDx=0;exitDy=0;entryX=0.5;entryY=0;entryDx=0;entryDy=0;endArrow=open;startSize=14;endSize=14;sourcePerimeterSpacing=8;targetPerimeterSpacing=8;" edge="1" parent="1" source="hV6w9RKZMiZoU73Pr-5g-9" target="hV6w9RKZMiZoU73Pr-5g-10">
          <mxGeometry relative="1" as="geometry" />
        </mxCell>
        <mxCell id="hV6w9RKZMiZoU73Pr-5g-9" value="formに入力を行う" style="rounded=1;whiteSpace=wrap;html=1;hachureGap=4;" vertex="1" parent="1">
          <mxGeometry x="397.5" y="1530" width="120" height="30" as="geometry" />
        </mxCell>
        <mxCell id="hV6w9RKZMiZoU73Pr-5g-33" style="edgeStyle=orthogonalEdgeStyle;rounded=0;orthogonalLoop=1;jettySize=auto;html=1;exitX=0.5;exitY=1;exitDx=0;exitDy=0;endArrow=open;startSize=14;endSize=14;sourcePerimeterSpacing=8;targetPerimeterSpacing=8;" edge="1" parent="1" source="hV6w9RKZMiZoU73Pr-5g-10">
          <mxGeometry relative="1" as="geometry">
            <mxPoint x="458" y="1100" as="targetPoint" />
            <Array as="points">
              <mxPoint x="458" y="1660" />
              <mxPoint x="680" y="1660" />
              <mxPoint x="680" y="1100" />
            </Array>
          </mxGeometry>
        </mxCell>
        <mxCell id="hV6w9RKZMiZoU73Pr-5g-10" value="formの内容をtext/htmlの形式で送信" style="rounded=1;whiteSpace=wrap;html=1;hachureGap=4;" vertex="1" parent="1">
          <mxGeometry x="352.5" y="1610" width="210" height="30" as="geometry" />
        </mxCell>
        <mxCell id="hV6w9RKZMiZoU73Pr-5g-19" style="edgeStyle=none;curved=1;rounded=0;orthogonalLoop=1;jettySize=auto;html=1;exitX=0.5;exitY=1;exitDx=0;exitDy=0;entryX=0.5;entryY=0;entryDx=0;entryDy=0;endArrow=open;startSize=14;endSize=14;sourcePerimeterSpacing=8;targetPerimeterSpacing=8;" edge="1" parent="1" source="hV6w9RKZMiZoU73Pr-5g-11" target="hV6w9RKZMiZoU73Pr-5g-12">
          <mxGeometry relative="1" as="geometry" />
        </mxCell>
        <mxCell id="hV6w9RKZMiZoU73Pr-5g-11" value="formから受けとった内容を$bodyに格納" style="rounded=1;whiteSpace=wrap;html=1;hachureGap=4;" vertex="1" parent="1">
          <mxGeometry x="397.5" y="1120" width="120" height="60" as="geometry" />
        </mxCell>
        <mxCell id="hV6w9RKZMiZoU73Pr-5g-20" style="edgeStyle=none;curved=1;rounded=0;orthogonalLoop=1;jettySize=auto;html=1;exitX=0.5;exitY=1;exitDx=0;exitDy=0;entryX=0.5;entryY=0;entryDx=0;entryDy=0;endArrow=open;startSize=14;endSize=14;sourcePerimeterSpacing=8;targetPerimeterSpacing=8;" edge="1" parent="1" source="hV6w9RKZMiZoU73Pr-5g-12" target="hV6w9RKZMiZoU73Pr-5g-8">
          <mxGeometry relative="1" as="geometry" />
        </mxCell>
        <mxCell id="hV6w9RKZMiZoU73Pr-5g-12" value="formから受け取った内容を出力するためのHTML文章を出力" style="rounded=1;whiteSpace=wrap;html=1;hachureGap=4;" vertex="1" parent="1">
          <mxGeometry x="345" y="1210" width="225" height="40" as="geometry" />
        </mxCell>
        <mxCell id="hV6w9RKZMiZoU73Pr-5g-29" value="" style="edgeStyle=orthogonalEdgeStyle;orthogonalLoop=1;jettySize=auto;html=1;rounded=0;endArrow=open;startSize=14;endSize=14;sourcePerimeterSpacing=8;targetPerimeterSpacing=8;" edge="1" parent="1">
          <mxGeometry width="120" relative="1" as="geometry">
            <mxPoint x="1000" y="1420" as="sourcePoint" />
            <mxPoint x="1120" y="1420" as="targetPoint" />
          </mxGeometry>
        </mxCell>
      </root>
    </mxGraphModel>
  </diagram>
</mxfile>
